<svg width="261" height="261" viewBox="0 0 261 261" fill="none" xmlns="http://www.w3.org/2000/svg">
<g filter="url(#filter0_d_23_1291)">
<rect x="41.4423" y="37.4423" width="179" height="179" rx="31.5" stroke="#2F3336"/>
<path fill-rule="evenodd" clip-rule="evenodd" d="M94.2584 76.9542C87.0975 76.9542 81.7987 83.222 82.036 90.0192C82.2637 96.5495 81.9678 105.007 79.8387 111.904C77.702 118.821 74.0909 123.204 68.1913 123.766V130.118C74.0909 130.682 77.702 135.063 79.8385 141.98C81.9678 148.877 82.2634 157.335 82.0357 163.865C81.7984 170.662 87.0972 176.93 94.2594 176.93H167.636C174.797 176.93 180.094 170.663 179.857 163.865C179.629 157.335 179.925 148.877 182.054 141.98C184.191 135.063 187.793 130.68 193.693 130.118V123.766C187.794 123.203 184.191 118.822 182.054 111.904C179.925 105.008 179.629 96.5495 179.857 90.0192C180.094 83.223 174.797 76.9542 167.636 76.9542H94.2575H94.2584ZM153.277 138.496C153.277 147.856 146.296 153.532 134.711 153.532H114.989C114.424 153.532 113.883 153.308 113.484 152.909C113.086 152.51 112.861 151.969 112.861 151.405V102.48C112.861 101.916 113.086 101.375 113.484 100.976C113.883 100.577 114.424 100.353 114.989 100.353H134.598C144.259 100.353 150.599 105.586 150.599 113.62C150.599 119.259 146.334 124.307 140.9 125.192V125.486C148.297 126.297 153.277 131.42 153.277 138.496ZM132.56 107.096H121.315V122.98H130.786C138.108 122.98 142.145 120.032 142.145 114.762C142.144 109.823 138.673 107.096 132.56 107.096ZM121.315 129.282V146.787H132.974C140.597 146.787 144.635 143.728 144.635 137.979C144.635 132.231 140.484 129.281 132.484 129.281H121.315V129.282Z" fill="#7952B3"/>
</g>
<defs>
<filter id="filter0_d_23_1291" x="0.942261" y="0.942261" width="260" height="260" filterUnits="userSpaceOnUse" color-interpolation-filters="sRGB">
<feFlood flood-opacity="0" result="BackgroundImageFix"/>
<feColorMatrix in="SourceAlpha" type="matrix" values="0 0 0 0 0 0 0 0 0 0 0 0 0 0 0 0 0 0 127 0" result="hardAlpha"/>
<feOffset dy="4"/>
<feGaussianBlur stdDeviation="20"/>
<feComposite in2="hardAlpha" operator="out"/>
<feColorMatrix type="matrix" values="0 0 0 0 0.0367917 0 0 0 0 0.0348958 0 0 0 0 0.0484375 0 0 0 0.1 0"/>
<feBlend mode="normal" in2="BackgroundImageFix" result="effect1_dropShadow_23_1291"/>
<feBlend mode="normal" in="SourceGraphic" in2="effect1_dropShadow_23_1291" result="shape"/>
</filter>
</defs>
</svg>
