<svg width="261" height="261" viewBox="0 0 261 261" fill="none" xmlns="http://www.w3.org/2000/svg">
<g filter="url(#filter0_d_23_1185)">
<rect x="41.4423" y="37.4423" width="179" height="179" rx="31.5" stroke="#2F3336"/>
<path d="M114.276 176.942C123.476 176.942 130.942 169.476 130.942 160.276V143.609H114.276C105.076 143.609 97.6089 151.076 97.6089 160.276C97.6089 169.476 105.076 176.942 114.276 176.942Z" fill="#0ACF83"/>
<path d="M97.6089 126.942C97.6089 117.742 105.076 110.276 114.276 110.276H130.942V143.609H114.276C105.076 143.609 97.6089 136.142 97.6089 126.942Z" fill="#A259FF"/>
<path d="M97.6089 93.6089C97.6089 84.4089 105.076 76.9423 114.276 76.9423H130.942V110.276H114.276C105.076 110.276 97.6089 102.809 97.6089 93.6089Z" fill="#F24E1E"/>
<path d="M130.942 76.9423H147.609C156.809 76.9423 164.276 84.4089 164.276 93.6089C164.276 102.809 156.809 110.276 147.609 110.276H130.942V76.9423Z" fill="#FF7262"/>
<path d="M164.276 126.942C164.276 136.142 156.809 143.609 147.609 143.609C138.409 143.609 130.942 136.142 130.942 126.942C130.942 117.742 138.409 110.276 147.609 110.276C156.809 110.276 164.276 117.742 164.276 126.942Z" fill="#1ABCFE"/>
</g>
<defs>
<filter id="filter0_d_23_1185" x="0.942261" y="0.942261" width="260" height="260" filterUnits="userSpaceOnUse" color-interpolation-filters="sRGB">
<feFlood flood-opacity="0" result="BackgroundImageFix"/>
<feColorMatrix in="SourceAlpha" type="matrix" values="0 0 0 0 0 0 0 0 0 0 0 0 0 0 0 0 0 0 127 0" result="hardAlpha"/>
<feOffset dy="4"/>
<feGaussianBlur stdDeviation="20"/>
<feComposite in2="hardAlpha" operator="out"/>
<feColorMatrix type="matrix" values="0 0 0 0 0.0367917 0 0 0 0 0.0348958 0 0 0 0 0.0484375 0 0 0 0.1 0"/>
<feBlend mode="normal" in2="BackgroundImageFix" result="effect1_dropShadow_23_1185"/>
<feBlend mode="normal" in="SourceGraphic" in2="effect1_dropShadow_23_1185" result="shape"/>
</filter>
</defs>
</svg>
