<svg width="261" height="229" viewBox="0 0 261 229" fill="none" xmlns="http://www.w3.org/2000/svg">
<g filter="url(#filter0_d_23_1206)">
<rect x="41.4423" y="37.4423" width="179" height="179" rx="31.5" stroke="#2F3336"/>
<path d="M102.114 76.9423H106.606V81.3954H110.747V76.9423H115.239V90.4188H110.747V85.9266H106.645V90.4188H102.114V76.9423ZM121.177 81.4344H117.212V76.9423H129.653V81.4344H125.669V90.4188H121.177V81.4344ZM131.626 76.9423H136.333L139.224 81.6884L142.114 76.9423H146.821V90.4188H142.329V83.7391L139.184 88.5829L136.04 83.7391V90.4188H131.626V76.9423ZM149.048 76.9423H153.54V85.9657H159.907V90.4188H149.048" fill="black"/>
<path d="M101.958 168.934L95.5126 96.5907H166.372L159.927 168.895L130.884 176.942" fill="#E44D26"/>
<path d="M130.942 170.79V102.528H159.907L154.38 164.247" fill="#F16529"/>
<path d="M108.677 111.376H130.942V120.243H118.403L119.224 129.325H130.942V138.173H111.099L108.677 111.376ZM111.489 142.626H120.395L121.02 149.716L130.942 152.372V161.63L112.739 156.552" fill="#EBEBEB"/>
<path d="M153.13 111.376H130.903V120.243H152.309L153.13 111.376ZM151.509 129.325H130.903V138.192H141.841L140.806 149.716L130.903 152.372V161.591L149.067 156.552" fill="white"/>
</g>
<defs>
<filter id="filter0_d_23_1206" x="0.942261" y="0.942261" width="260" height="260" filterUnits="userSpaceOnUse" color-interpolation-filters="sRGB">
<feFlood flood-opacity="0" result="BackgroundImageFix"/>
<feColorMatrix in="SourceAlpha" type="matrix" values="0 0 0 0 0 0 0 0 0 0 0 0 0 0 0 0 0 0 127 0" result="hardAlpha"/>
<feOffset dy="4"/>
<feGaussianBlur stdDeviation="20"/>
<feComposite in2="hardAlpha" operator="out"/>
<feColorMatrix type="matrix" values="0 0 0 0 0.0367917 0 0 0 0 0.0348958 0 0 0 0 0.0484375 0 0 0 0.1 0"/>
<feBlend mode="normal" in2="BackgroundImageFix" result="effect1_dropShadow_23_1206"/>
<feBlend mode="normal" in="SourceGraphic" in2="effect1_dropShadow_23_1206" result="shape"/>
</filter>
</defs>
</svg>
