<svg width="261" height="261" viewBox="0 0 261 261" fill="none" xmlns="http://www.w3.org/2000/svg">
<g filter="url(#filter0_d_23_1191)">
<rect x="40.9038" y="37.1619" width="179" height="179" rx="31.5" stroke="#2F3336"/>
<path d="M180 77L80 77L80 177H180V77Z" fill="#F7DF1E"/>
<path d="M147.175 155.125C149.189 158.414 151.81 160.832 156.444 160.832C160.338 160.832 162.825 158.886 162.825 156.197C162.825 152.975 160.27 151.833 155.984 149.959L153.635 148.951C146.854 146.062 142.349 142.443 142.349 134.792C142.349 127.744 147.719 122.379 156.111 122.379C162.086 122.379 166.381 124.459 169.476 129.903L162.159 134.602C160.548 131.713 158.81 130.575 156.111 130.575C153.359 130.575 151.614 132.321 151.614 134.602C151.614 137.421 153.36 138.562 157.392 140.308L159.741 141.314C167.725 144.738 172.233 148.229 172.233 156.076C172.233 164.536 165.587 169.171 156.662 169.171C147.935 169.171 142.297 165.013 139.538 159.562L147.175 155.125ZM113.979 155.94C115.456 158.559 116.798 160.773 120.027 160.773C123.114 160.773 125.062 159.565 125.062 154.868V122.916H134.459V154.995C134.459 164.725 128.754 169.154 120.427 169.154C112.903 169.154 108.546 165.26 106.33 160.571L113.979 155.94Z" fill="black"/>
</g>
<defs>
<filter id="filter0_d_23_1191" x="0.403809" y="0.661926" width="260" height="260" filterUnits="userSpaceOnUse" color-interpolation-filters="sRGB">
<feFlood flood-opacity="0" result="BackgroundImageFix"/>
<feColorMatrix in="SourceAlpha" type="matrix" values="0 0 0 0 0 0 0 0 0 0 0 0 0 0 0 0 0 0 127 0" result="hardAlpha"/>
<feOffset dy="4"/>
<feGaussianBlur stdDeviation="20"/>
<feComposite in2="hardAlpha" operator="out"/>
<feColorMatrix type="matrix" values="0 0 0 0 0.0367917 0 0 0 0 0.0348958 0 0 0 0 0.0484375 0 0 0 0.1 0"/>
<feBlend mode="normal" in2="BackgroundImageFix" result="effect1_dropShadow_23_1191"/>
<feBlend mode="normal" in="SourceGraphic" in2="effect1_dropShadow_23_1191" result="shape"/>
</filter>
</defs>
</svg>
