<svg width="261" height="261" viewBox="0 0 261 261" fill="none" xmlns="http://www.w3.org/2000/svg">
<g filter="url(#filter0_d_20_2151)">
<rect x="41.4421" y="36.8804" width="179" height="179" rx="31.5" stroke="#D9D9D9"/>
<path d="M180.942 76.3804H80.9421V176.38H180.942V76.3804Z" fill="#F7DF1E"/>
<path d="M148.117 154.506C150.131 157.795 152.752 160.212 157.387 160.212C161.28 160.212 163.768 158.266 163.768 155.577C163.768 152.355 161.212 151.214 156.926 149.339L154.577 148.331C147.796 145.442 143.291 141.823 143.291 134.172C143.291 127.125 148.661 121.76 157.053 121.76C163.028 121.76 167.323 123.839 170.418 129.284L163.101 133.982C161.49 131.093 159.752 129.955 157.053 129.955C154.301 129.955 152.556 131.701 152.556 133.982C152.556 136.801 154.302 137.942 158.334 139.688L160.683 140.695C168.668 144.118 173.175 147.609 173.175 155.457C173.175 163.917 166.529 168.552 157.604 168.552C148.877 168.552 143.239 164.393 140.48 158.942L148.117 154.506ZM114.921 155.32C116.398 157.939 117.741 160.153 120.969 160.153C124.056 160.153 126.004 158.945 126.004 154.249V122.296H135.401V154.376C135.401 164.106 129.696 168.534 121.369 168.534C113.845 168.534 109.488 164.641 107.272 159.951L114.921 155.32Z" fill="black"/>
</g>
<defs>
<filter id="filter0_d_20_2151" x="0.942139" y="0.380371" width="260" height="260" filterUnits="userSpaceOnUse" color-interpolation-filters="sRGB">
<feFlood flood-opacity="0" result="BackgroundImageFix"/>
<feColorMatrix in="SourceAlpha" type="matrix" values="0 0 0 0 0 0 0 0 0 0 0 0 0 0 0 0 0 0 127 0" result="hardAlpha"/>
<feOffset dy="4"/>
<feGaussianBlur stdDeviation="20"/>
<feComposite in2="hardAlpha" operator="out"/>
<feColorMatrix type="matrix" values="0 0 0 0 0.0367917 0 0 0 0 0.0348958 0 0 0 0 0.0484375 0 0 0 0.1 0"/>
<feBlend mode="normal" in2="BackgroundImageFix" result="effect1_dropShadow_20_2151"/>
<feBlend mode="normal" in="SourceGraphic" in2="effect1_dropShadow_20_2151" result="shape"/>
</filter>
</defs>
</svg>
