<svg width="260" height="260" viewBox="0 0 260 260" fill="none" xmlns="http://www.w3.org/2000/svg">
<g filter="url(#filter0_d_23_1238)">
<rect x="40.5" y="36.5" width="179" height="179" rx="31.5" stroke="#2F3336"/>
<path d="M125.906 77.0669C128.385 75.6476 131.615 75.6412 134.092 77.0669C146.556 84.1094 159.023 91.141 171.485 98.1878C173.829 99.5081 175.396 102.117 175.373 104.817V147.188C175.39 150.001 173.667 152.671 171.195 153.962C158.772 160.966 146.356 167.978 133.935 174.982C131.404 176.429 128.11 176.317 125.658 174.752C121.934 172.593 118.203 170.444 114.478 168.287C113.717 167.834 112.859 167.473 112.322 166.735C112.797 166.094 113.647 166.014 114.337 165.735C115.891 165.24 117.319 164.447 118.747 163.677C119.108 163.43 119.549 163.525 119.896 163.746C123.08 165.572 126.237 167.451 129.432 169.259C130.114 169.653 130.804 169.13 131.387 168.806C143.577 161.916 155.783 155.052 167.971 148.16C168.423 147.943 168.672 147.463 168.636 146.969C168.644 132.992 168.638 119.012 168.64 105.035C168.691 104.473 168.367 103.957 167.859 103.727C155.48 96.7557 143.106 89.7733 130.729 82.7999C130.515 82.6524 130.261 82.5733 130 82.5729C129.74 82.5726 129.486 82.6509 129.271 82.7977C116.894 89.7733 104.523 96.7621 92.1452 103.733C91.6394 103.964 91.3 104.471 91.3602 105.035C91.3623 119.012 91.3602 132.992 91.3602 146.971C91.3387 147.212 91.3918 147.454 91.5121 147.665C91.6325 147.875 91.8144 148.043 92.0333 148.147C95.3363 150.02 98.6435 151.88 101.949 153.747C103.811 154.749 106.097 155.344 108.148 154.577C109.959 153.927 111.228 152.08 111.193 150.158C111.21 136.262 111.184 122.364 111.206 108.471C111.161 107.854 111.746 107.344 112.345 107.402C113.932 107.392 115.522 107.381 117.109 107.407C117.771 107.392 118.227 108.056 118.145 108.677C118.139 122.661 118.162 136.645 118.134 150.629C118.139 154.355 116.608 158.411 113.16 160.234C108.914 162.434 103.665 161.967 99.4691 159.858C95.837 158.045 92.371 155.906 88.8034 153.964C86.3242 152.68 84.61 149.999 84.6275 147.188V104.817C84.6015 102.061 86.2316 99.4048 88.6484 98.1038C101.069 91.0943 113.487 84.0795 125.906 77.0669Z" fill="#8CC84B"/>
<path d="M136.741 106.417C142.158 106.069 147.958 106.211 152.832 108.88C156.607 110.925 158.699 115.217 158.766 119.41C158.66 119.975 158.069 120.287 157.529 120.248C155.957 120.246 154.385 120.27 152.813 120.238C152.147 120.263 151.759 119.649 151.676 119.059C151.224 117.053 150.13 115.066 148.242 114.098C145.343 112.647 141.982 112.72 138.821 112.75C136.513 112.873 134.032 113.073 132.077 114.43C130.576 115.457 130.12 117.532 130.656 119.203C131.161 120.403 132.546 120.79 133.679 121.147C140.208 122.855 147.126 122.685 153.529 124.932C156.181 125.848 158.774 127.629 159.682 130.404C160.869 134.125 160.348 138.572 157.701 141.558C155.555 144.016 152.428 145.354 149.31 146.081C145.162 147.005 140.857 147.029 136.645 146.618C132.684 146.167 128.562 145.126 125.504 142.427C122.889 140.157 121.612 136.619 121.738 133.205C121.769 132.628 122.343 132.226 122.895 132.273C124.478 132.26 126.061 132.256 127.643 132.275C128.276 132.23 128.744 132.776 128.777 133.372C129.069 135.284 129.787 137.29 131.454 138.423C134.671 140.499 138.707 140.356 142.39 140.414C145.442 140.279 148.867 140.238 151.358 138.221C152.671 137.071 153.061 135.146 152.706 133.491C152.321 132.093 150.859 131.441 149.603 131.015C143.158 128.977 136.163 129.716 129.781 127.411C127.19 126.495 124.684 124.764 123.689 122.102C122.3 118.335 122.936 113.675 125.86 110.789C128.712 107.918 132.828 106.813 136.741 106.417V106.417Z" fill="#8CC84B"/>
</g>
<defs>
<filter id="filter0_d_23_1238" x="0" y="0" width="260" height="260" filterUnits="userSpaceOnUse" color-interpolation-filters="sRGB">
<feFlood flood-opacity="0" result="BackgroundImageFix"/>
<feColorMatrix in="SourceAlpha" type="matrix" values="0 0 0 0 0 0 0 0 0 0 0 0 0 0 0 0 0 0 127 0" result="hardAlpha"/>
<feOffset dy="4"/>
<feGaussianBlur stdDeviation="20"/>
<feComposite in2="hardAlpha" operator="out"/>
<feColorMatrix type="matrix" values="0 0 0 0 0.0367917 0 0 0 0 0.0348958 0 0 0 0 0.0484375 0 0 0 0.1 0"/>
<feBlend mode="normal" in2="BackgroundImageFix" result="effect1_dropShadow_23_1238"/>
<feBlend mode="normal" in="SourceGraphic" in2="effect1_dropShadow_23_1238" result="shape"/>
</filter>
</defs>
</svg>
