<svg width="261" height="261" viewBox="0 0 261 261" fill="none" xmlns="http://www.w3.org/2000/svg">
<g filter="url(#filter0_d_23_1204)">
<rect x="41.4423" y="37.4423" width="179" height="179" rx="31.5" stroke="#2F3336"/>
<path d="M130.446 135.899C135.315 135.899 139.262 131.952 139.262 127.083C139.262 122.214 135.315 118.266 130.446 118.266C125.577 118.266 121.63 122.214 121.63 127.083C121.63 131.952 125.577 135.899 130.446 135.899Z" fill="#61DAFB"/>
<path d="M130.446 145.145C156.573 145.145 177.753 137.058 177.753 127.083C177.753 117.107 156.573 109.02 130.446 109.02C104.319 109.02 83.1394 117.107 83.1394 127.083C83.1394 137.058 104.319 145.145 130.446 145.145Z" stroke="#61DAFB" stroke-width="5"/>
<path d="M114.803 136.114C127.867 158.74 145.46 173.039 154.099 168.051C162.738 163.064 159.152 140.678 146.089 118.051C133.025 95.425 115.432 81.1261 106.793 86.114C98.1534 91.1018 101.74 113.488 114.803 136.114Z" stroke="#61DAFB" stroke-width="5"/>
<path d="M114.803 118.051C101.74 140.678 98.1535 163.064 106.793 168.051C115.432 173.039 133.025 158.74 146.089 136.114C159.152 113.488 162.738 91.1018 154.099 86.1139C145.46 81.1261 127.867 95.425 114.803 118.051Z" stroke="#61DAFB" stroke-width="5"/>
</g>
<defs>
<filter id="filter0_d_23_1204" x="0.942261" y="0.942261" width="260" height="260" filterUnits="userSpaceOnUse" color-interpolation-filters="sRGB">
<feFlood flood-opacity="0" result="BackgroundImageFix"/>
<feColorMatrix in="SourceAlpha" type="matrix" values="0 0 0 0 0 0 0 0 0 0 0 0 0 0 0 0 0 0 127 0" result="hardAlpha"/>
<feOffset dy="4"/>
<feGaussianBlur stdDeviation="20"/>
<feComposite in2="hardAlpha" operator="out"/>
<feColorMatrix type="matrix" values="0 0 0 0 0.0367917 0 0 0 0 0.0348958 0 0 0 0 0.0484375 0 0 0 0.1 0"/>
<feBlend mode="normal" in2="BackgroundImageFix" result="effect1_dropShadow_23_1204"/>
<feBlend mode="normal" in="SourceGraphic" in2="effect1_dropShadow_23_1204" result="shape"/>
</filter>
</defs>
</svg>
