<svg width="261" height="261" viewBox="0 0 261 261" fill="none" xmlns="http://www.w3.org/2000/svg">
<g filter="url(#filter0_d_23_1226)">
<rect x="41.0818" y="36.8217" width="179" height="179" rx="31.5" stroke="#2F3336"/>
<path d="M97.2005 76.0782H163.715C173.799 76.0782 181.953 84.2316 181.953 94.3161V158.256C181.953 168.34 173.799 176.494 163.715 176.494H97.2005C87.116 176.494 78.9626 168.34 78.9626 158.256V94.3161C78.9626 84.2316 87.116 76.0782 97.2005 76.0782Z" fill="#001E36"/>
<path d="M102.135 146.498L102.135 102.341C102.135 102.04 102.264 101.869 102.565 101.869C103.294 101.869 103.981 101.869 104.968 101.826C105.998 101.783 107.07 101.783 108.229 101.74C109.388 101.697 110.632 101.697 111.962 101.654C113.293 101.611 114.58 101.611 115.867 101.611C119.386 101.611 122.304 102.04 124.707 102.942C126.853 103.671 128.827 104.873 130.458 106.46C131.831 107.834 132.904 109.507 133.59 111.352C134.234 113.155 134.577 115 134.577 116.931C134.577 120.622 133.719 123.668 132.003 126.071C130.286 128.475 127.883 130.277 125.094 131.307C122.176 132.38 118.957 132.766 115.438 132.766C114.408 132.766 113.722 132.766 113.293 132.723C112.864 132.68 112.263 132.68 111.447 132.68L111.447 146.455C111.49 146.755 111.276 147.013 110.975 147.056C110.933 147.056 110.89 147.056 110.804 147.056L102.65 147.056C102.307 147.056 102.135 146.884 102.135 146.498ZM111.49 110.151L111.49 124.57C112.091 124.612 112.649 124.655 113.164 124.655L115.438 124.655C117.112 124.655 118.786 124.398 120.373 123.883C121.747 123.497 122.948 122.681 123.892 121.609C124.793 120.536 125.222 119.077 125.222 117.189C125.265 115.858 124.922 114.528 124.235 113.369C123.506 112.254 122.476 111.395 121.232 110.923C119.644 110.28 117.927 110.022 116.168 110.065C115.052 110.065 114.065 110.065 113.25 110.108C112.392 110.065 111.791 110.108 111.49 110.151Z" fill="#31A8FF"/>
<path d="M161.355 121.952C160.067 121.265 158.694 120.793 157.235 120.493C155.647 120.15 154.06 119.935 152.429 119.935C151.571 119.892 150.67 120.021 149.854 120.235C149.296 120.364 148.824 120.664 148.524 121.094C148.309 121.437 148.181 121.866 148.181 122.252C148.181 122.638 148.352 123.025 148.61 123.368C148.996 123.84 149.511 124.226 150.069 124.527C151.056 125.042 152.086 125.514 153.116 125.943C155.433 126.715 157.664 127.788 159.724 129.075C161.14 129.977 162.299 131.178 163.114 132.637C163.801 134.01 164.144 135.512 164.101 137.057C164.144 139.074 163.543 141.091 162.428 142.764C161.226 144.481 159.553 145.811 157.621 146.584C155.519 147.485 152.944 147.957 149.854 147.957C147.88 147.957 145.949 147.785 144.018 147.399C142.516 147.142 141.014 146.67 139.641 146.026C139.341 145.854 139.126 145.554 139.169 145.21L139.169 137.744C139.169 137.615 139.212 137.443 139.341 137.357C139.469 137.272 139.598 137.315 139.727 137.4C141.401 138.387 143.16 139.074 145.048 139.503C146.679 139.932 148.395 140.147 150.112 140.147C151.742 140.147 152.901 139.932 153.674 139.546C154.36 139.246 154.832 138.516 154.832 137.744C154.832 137.143 154.489 136.585 153.802 136.027C153.116 135.469 151.7 134.826 149.597 134.01C147.408 133.238 145.391 132.208 143.503 130.921C142.173 129.977 141.057 128.732 140.242 127.273C139.555 125.9 139.212 124.398 139.255 122.896C139.255 121.051 139.77 119.291 140.714 117.704C141.787 115.987 143.374 114.614 145.22 113.756C147.237 112.726 149.768 112.254 152.815 112.254C154.575 112.254 156.377 112.382 158.136 112.64C159.424 112.811 160.668 113.155 161.827 113.627C161.999 113.67 162.17 113.841 162.256 114.013C162.299 114.185 162.342 114.356 162.342 114.528L162.342 121.523C162.342 121.694 162.256 121.866 162.127 121.952C161.741 122.038 161.527 122.038 161.355 121.952Z" fill="#31A8FF"/>
</g>
<defs>
<filter id="filter0_d_23_1226" x="0.581787" y="0.321716" width="260" height="260" filterUnits="userSpaceOnUse" color-interpolation-filters="sRGB">
<feFlood flood-opacity="0" result="BackgroundImageFix"/>
<feColorMatrix in="SourceAlpha" type="matrix" values="0 0 0 0 0 0 0 0 0 0 0 0 0 0 0 0 0 0 127 0" result="hardAlpha"/>
<feOffset dy="4"/>
<feGaussianBlur stdDeviation="20"/>
<feComposite in2="hardAlpha" operator="out"/>
<feColorMatrix type="matrix" values="0 0 0 0 0.0367917 0 0 0 0 0.0348958 0 0 0 0 0.0484375 0 0 0 0.1 0"/>
<feBlend mode="normal" in2="BackgroundImageFix" result="effect1_dropShadow_23_1226"/>
<feBlend mode="normal" in="SourceGraphic" in2="effect1_dropShadow_23_1226" result="shape"/>
</filter>
</defs>
</svg>
