<svg width="303" height="303" viewBox="0 0 303 303" fill="none" xmlns="http://www.w3.org/2000/svg">
<g filter="url(#filter0_d_20_2161)">
<rect x="119.183" y="24.794" width="179" height="179" rx="31.5" transform="rotate(30 119.183 24.794)" stroke="#D9D9D9"/>
<path d="M147.034 155.179C151.251 157.614 156.643 156.169 159.077 151.952C161.512 147.735 160.067 142.343 155.85 139.909C151.634 137.474 146.242 138.919 143.807 143.136C141.373 147.353 142.817 152.744 147.034 155.179Z" fill="#61DAFB"/>
<path d="M142.411 163.187C165.037 176.25 187.423 179.836 192.411 171.197C197.399 162.558 183.1 144.965 160.473 131.901C137.847 118.838 115.461 115.251 110.473 123.891C105.486 132.53 119.784 150.123 142.411 163.187Z" stroke="#61DAFB" stroke-width="5"/>
<path d="M133.38 147.544C133.38 173.671 141.466 194.85 151.442 194.85C161.418 194.85 169.505 173.671 169.505 147.544C169.505 121.417 161.418 100.237 151.442 100.237C141.466 100.237 133.38 121.417 133.38 147.544Z" stroke="#61DAFB" stroke-width="5"/>
<path d="M142.411 131.901C119.784 144.965 105.486 162.558 110.473 171.197C115.461 179.836 137.847 176.25 160.473 163.186C183.1 150.123 197.399 132.53 192.411 123.891C187.423 115.251 165.037 118.838 142.411 131.901Z" stroke="#61DAFB" stroke-width="5"/>
</g>
<defs>
<filter id="filter0_d_20_2161" x="-11.0001" y="-11.889" width="325.885" height="325.885" filterUnits="userSpaceOnUse" color-interpolation-filters="sRGB">
<feFlood flood-opacity="0" result="BackgroundImageFix"/>
<feColorMatrix in="SourceAlpha" type="matrix" values="0 0 0 0 0 0 0 0 0 0 0 0 0 0 0 0 0 0 127 0" result="hardAlpha"/>
<feOffset dy="4"/>
<feGaussianBlur stdDeviation="20"/>
<feComposite in2="hardAlpha" operator="out"/>
<feColorMatrix type="matrix" values="0 0 0 0 0.0367917 0 0 0 0 0.0348958 0 0 0 0 0.0484375 0 0 0 0.1 0"/>
<feBlend mode="normal" in2="BackgroundImageFix" result="effect1_dropShadow_20_2161"/>
<feBlend mode="normal" in="SourceGraphic" in2="effect1_dropShadow_20_2161" result="shape"/>
</filter>
</defs>
</svg>
