<svg width="261" height="261" viewBox="0 0 261 261" fill="none" xmlns="http://www.w3.org/2000/svg">
<g filter="url(#filter0_d_23_1223)">
<rect x="40.5818" y="36.9853" width="179" height="179" rx="31.5" stroke="#2F3336"/>
<path d="M129.792 94.3406C115.657 94.3406 106.823 101.406 103.289 115.536C108.59 108.47 114.774 105.822 121.841 107.587C125.873 108.595 128.755 111.52 131.946 114.757C137.142 120.031 143.157 126.134 156.295 126.134C170.428 126.134 179.263 119.068 182.796 104.937C177.496 112.003 171.312 114.653 164.244 112.887C160.213 111.88 157.331 108.954 154.14 105.717C148.944 100.444 142.929 94.3406 129.792 94.3406ZM103.289 126.134C89.1554 126.134 80.3202 133.199 76.7875 147.33C82.0873 140.265 88.2712 137.615 95.3393 139.382C99.3705 140.391 102.252 143.315 105.443 146.551C110.639 151.824 116.655 157.928 129.792 157.928C143.927 157.928 152.761 150.863 156.295 136.732C150.993 143.797 144.81 146.447 137.743 144.68C133.71 143.674 130.828 140.747 127.638 137.511C122.441 132.238 116.427 126.134 103.289 126.134Z" fill="#06B6D4"/>
</g>
<defs>
<filter id="filter0_d_23_1223" x="0.0817871" y="0.485291" width="260" height="260" filterUnits="userSpaceOnUse" color-interpolation-filters="sRGB">
<feFlood flood-opacity="0" result="BackgroundImageFix"/>
<feColorMatrix in="SourceAlpha" type="matrix" values="0 0 0 0 0 0 0 0 0 0 0 0 0 0 0 0 0 0 127 0" result="hardAlpha"/>
<feOffset dy="4"/>
<feGaussianBlur stdDeviation="20"/>
<feComposite in2="hardAlpha" operator="out"/>
<feColorMatrix type="matrix" values="0 0 0 0 0.0367917 0 0 0 0 0.0348958 0 0 0 0 0.0484375 0 0 0 0.1 0"/>
<feBlend mode="normal" in2="BackgroundImageFix" result="effect1_dropShadow_23_1223"/>
<feBlend mode="normal" in="SourceGraphic" in2="effect1_dropShadow_23_1223" result="shape"/>
</filter>
</defs>
</svg>
